<mxfile host="65bd71144e">
    <diagram id="ywwP6c4tokRCVMQ7xgE5" name="Page-1">
        <mxGraphModel dx="5865" dy="2193" grid="1" gridSize="10" guides="1" tooltips="1" connect="1" arrows="1" fold="1" page="1" pageScale="1" pageWidth="850" pageHeight="1100" math="0" shadow="0">
            <root>
                <mxCell id="0"/>
                <mxCell id="1" parent="0"/>
                <mxCell id="178" value="" style="whiteSpace=wrap;html=1;aspect=fixed;container=1;" parent="1" vertex="1">
                    <mxGeometry x="-3330" y="-970" width="1720" height="1720" as="geometry"/>
                </mxCell>
                <mxCell id="179" value="Mercadoria Devolvida" style="rounded=0;whiteSpace=wrap;html=1;fillColor=#f0a30a;fontColor=#000000;strokeColor=#BD7000;" parent="178" vertex="1">
                    <mxGeometry x="786.2857142857143" y="275.2" width="127.77142857142857" height="68.8" as="geometry"/>
                </mxCell>
                <mxCell id="180" value="&lt;font color=&quot;#0d0c0c&quot;&gt;Devolver Mercadoria&lt;/font&gt;" style="rounded=0;whiteSpace=wrap;html=1;fillColor=#B1DDF0;fontColor=#ffffff;strokeColor=#006EAF;" parent="178" vertex="1">
                    <mxGeometry x="619.2" y="280.1142857142857" width="137.6" height="58.971428571428575" as="geometry"/>
                </mxCell>
                <mxCell id="181" value="Expedir Mercadoria" style="rounded=0;whiteSpace=wrap;html=1;fillColor=#b1ddf0;strokeColor=#10739e;" parent="178" vertex="1">
                    <mxGeometry x="157.25714285714287" y="474.22857142857146" width="137.6" height="63.885714285714286" as="geometry"/>
                </mxCell>
                <mxCell id="182" value="&lt;font color=&quot;#111311&quot;&gt;Guia de Remessa&lt;/font&gt;" style="rounded=0;whiteSpace=wrap;html=1;fillColor=#ffff88;strokeColor=none;" parent="178" vertex="1">
                    <mxGeometry x="265.37142857142857" y="383.31428571428575" width="117.94285714285715" height="78.62857142857143" as="geometry"/>
                </mxCell>
                <mxCell id="183" value="Receber Mercadoria" style="rounded=0;whiteSpace=wrap;html=1;fillColor=#b1ddf0;strokeColor=#10739e;" parent="178" vertex="1">
                    <mxGeometry x="157.25714285714287" y="275.2" width="137.6" height="68.8" as="geometry"/>
                </mxCell>
                <mxCell id="184" value="&lt;font color=&quot;#0e0707&quot;&gt;Utiizador&lt;/font&gt;" style="rounded=0;whiteSpace=wrap;html=1;fillColor=#fff2cc;strokeColor=#d6b656;" parent="178" vertex="1">
                    <mxGeometry x="132.68571428571428" y="324.34285714285716" width="58.971428571428575" height="29.485714285714288" as="geometry"/>
                </mxCell>
                <mxCell id="185" value="&lt;font color=&quot;#0e0707&quot;&gt;Utilizador&lt;/font&gt;" style="rounded=0;whiteSpace=wrap;html=1;fillColor=#fff2cc;strokeColor=#d6b656;" parent="178" vertex="1">
                    <mxGeometry x="132.68571428571428" y="520.9142857142857" width="58.971428571428575" height="29.485714285714288" as="geometry"/>
                </mxCell>
                <mxCell id="186" value="&lt;font color=&quot;#0e0707&quot;&gt;Utilizador&lt;/font&gt;" style="rounded=0;whiteSpace=wrap;html=1;fillColor=#fff2cc;strokeColor=#d6b656;" parent="178" vertex="1">
                    <mxGeometry x="599.5428571428572" y="324.34285714285716" width="58.971428571428575" height="29.485714285714288" as="geometry"/>
                </mxCell>
                <mxCell id="187" value="Devolver mercadoria com validade &amp;lt;30 dias" style="rounded=0;whiteSpace=wrap;html=1;fillColor=#9E3DFF;fontColor=#ffffff;strokeColor=none;" parent="178" vertex="1">
                    <mxGeometry x="452.1142857142857" y="265.37142857142857" width="137.6" height="78.62857142857143" as="geometry"/>
                </mxCell>
                <mxCell id="188" value="&lt;font color=&quot;#111311&quot;&gt;Nota Recebimento&lt;/font&gt;" style="rounded=0;whiteSpace=wrap;html=1;fillColor=#ffff88;strokeColor=none;" parent="178" vertex="1">
                    <mxGeometry x="265.37142857142857" y="186.74285714285713" width="117.94285714285715" height="78.62857142857143" as="geometry"/>
                </mxCell>
                <mxCell id="189" value="Mercadoria Expedida" style="rounded=0;whiteSpace=wrap;html=1;fillColor=#f0a30a;fontColor=#000000;strokeColor=#BD7000;" parent="178" vertex="1">
                    <mxGeometry x="314.51428571428573" y="479.14285714285717" width="127.77142857142857" height="58.971428571428575" as="geometry"/>
                </mxCell>
                <mxCell id="190" value="Mercadoria Recebida" style="rounded=0;whiteSpace=wrap;html=1;fillColor=#f0a30a;fontColor=#000000;strokeColor=#BD7000;" parent="178" vertex="1">
                    <mxGeometry x="314.51428571428573" y="275.2" width="117.94285714285715" height="68.8" as="geometry"/>
                </mxCell>
                <mxCell id="191" value="&lt;font color=&quot;#111311&quot;&gt;Nota Devolucao&lt;/font&gt;" style="rounded=0;whiteSpace=wrap;html=1;fillColor=#ffff88;strokeColor=none;" parent="178" vertex="1">
                    <mxGeometry x="742.0571428571428" y="186.74285714285713" width="117.94285714285715" height="78.62857142857143" as="geometry"/>
                </mxCell>
            </root>
        </mxGraphModel>
    </diagram>
</mxfile>